HIERARCHY
ROOT Character1_Hips
{
  OFFSET -76.157 93.8323 -48.0529
  CHANNELS 6 Xposition Yposition Zposition Zrotation Xrotation Yrotation
  JOINT Character1_Spine
  {
    OFFSET 0 8.754 -1.339
    CHANNELS 3 Zrotation Xrotation Yrotation
    JOINT Character1_Spine1
    {
      OFFSET 0 10.855 -0.645
      CHANNELS 3 Zrotation Xrotation Yrotation
      JOINT Character1_LeftShoulder
      {
        OFFSET 1.467 27.745 1.178
        CHANNELS 3 Zrotation Xrotation Yrotation
        JOINT Character1_LeftArm
        {
          OFFSET 18.486 -1.858 0.275
          CHANNELS 3 Zrotation Xrotation Yrotation
          JOINT Character1_LeftForeArm
          {
            OFFSET 32.391 -1.079 3.409
            CHANNELS 3 Zrotation Xrotation Yrotation
            JOINT Character1_LeftHand
            {
              OFFSET 28.678 -2.281 2.112
              CHANNELS 3 Zrotation Xrotation Yrotation
              End Site
              {
                OFFSET -0.000241878 -0.00028536 -9.11487e-005
              }
            }
            JOINT L_Radius
            {
              OFFSET -8.94447e-005 -0.392541 -0.0893675
              CHANNELS 3 Zrotation Xrotation Yrotation
              End Site
              {
                OFFSET 0 0 0
              }
            }
          }
          JOINT L_Humerus
          {
            OFFSET 42.9881 15.7281 -23.1008
            CHANNELS 3 Zrotation Xrotation Yrotation
            End Site
            {
              OFFSET 0 0 0
            }
          }
        }
        JOINT L_Shoulder
        {
          OFFSET 3.24498e-005 -0.000608592 -0.000527677
          CHANNELS 3 Zrotation Xrotation Yrotation
          End Site
          {
            OFFSET 0 0 0
          }
        }
      }
      JOINT Character1_RightShoulder
      {
        OFFSET -1.467 27.745 1.178
        CHANNELS 3 Zrotation Xrotation Yrotation
        JOINT Character1_RightArm
        {
          OFFSET -18.486 -1.858 0.275
          CHANNELS 3 Zrotation Xrotation Yrotation
          JOINT Character1_RightForeArm
          {
            OFFSET -32.391 -1.079 3.409
            CHANNELS 3 Zrotation Xrotation Yrotation
            JOINT Character1_RightHand
            {
              OFFSET -28.678 -2.281 2.112
              CHANNELS 3 Zrotation Xrotation Yrotation
              End Site
              {
                OFFSET 0.000589556 -0.000254961 0.000258925
              }
            }
            JOINT R_Radius
            {
              OFFSET 0.000437123 -0.392512 -0.0890171
              CHANNELS 3 Zrotation Xrotation Yrotation
              End Site
              {
                OFFSET 0 0 0
              }
            }
          }
          JOINT R_Humerus
          {
            OFFSET -42.9874 15.7281 -23.1005
            CHANNELS 3 Zrotation Xrotation Yrotation
            End Site
            {
              OFFSET 0 0 0
            }
          }
        }
        JOINT R_Shoulder
        {
          OFFSET -3.24498e-005 -0.000608592 -0.000527677
          CHANNELS 3 Zrotation Xrotation Yrotation
          End Site
          {
            OFFSET 0 0 0
          }
        }
      }
      JOINT Character1_Neck
      {
        OFFSET 0 30.836 0.626
        CHANNELS 3 Zrotation Xrotation Yrotation
        JOINT Character1_Head
        {
          OFFSET 0 8.074 3.498
          CHANNELS 3 Zrotation Xrotation Yrotation
          End Site
          {
            OFFSET 0 -0.00153379 1.54668e-005
          }
        }
        JOINT Neck
        {
          OFFSET -0.805319 0.124009 -0.481841
          CHANNELS 3 Zrotation Xrotation Yrotation
          End Site
          {
            OFFSET 0 0 0
          }
        }
      }
      JOINT Torso
      {
        OFFSET 0 -0.000828813 -0.000380861
        CHANNELS 3 Zrotation Xrotation Yrotation
        End Site
        {
          OFFSET 0 0 0
        }
      }
    }
    JOINT Spine
    {
      OFFSET -0.0750787 -0.0453694 -0.209464
      CHANNELS 3 Zrotation Xrotation Yrotation
      End Site
      {
        OFFSET 0 0 0
      }
    }
  }
  JOINT Character1_RightUpLeg
  {
    OFFSET -9.035 -4.63425 1.845
    CHANNELS 3 Zrotation Xrotation Yrotation
    JOINT Character1_RightLeg
    {
      OFFSET -0.919521 -40.345 1.155
      CHANNELS 3 Zrotation Xrotation Yrotation
      JOINT Character1_RightFoot
      {
        OFFSET 1.95452 -45.2655 -4.18888
        CHANNELS 3 Zrotation Xrotation Yrotation
        JOINT Character1_RightToeBase
        {
          OFFSET 1.87056 -6.69517 14.7145
          CHANNELS 3 Zrotation Xrotation Yrotation
          End Site
          {
            OFFSET 0 0 0
          }
        }
        JOINT R_Foot
        {
          OFFSET 8 -7.75529 4.18888
          CHANNELS 3 Zrotation Xrotation Yrotation
          End Site
          {
            OFFSET 0 0 0
          }
        }
      }
      JOINT R_Tibia
      {
        OFFSET 0 0 0
        CHANNELS 3 Zrotation Xrotation Yrotation
        End Site
        {
          OFFSET 0 0 0
        }
      }
    }
    JOINT R_Femur
    {
      OFFSET 0 0 0
      CHANNELS 3 Zrotation Xrotation Yrotation
      End Site
      {
        OFFSET 0 0 0
      }
    }
  }
  JOINT Character1_LeftUpLeg
  {
    OFFSET 9.035 -4.63425 1.845
    CHANNELS 3 Zrotation Xrotation Yrotation
    JOINT Character1_LeftLeg
    {
      OFFSET 0.919521 -40.345 1.155
      CHANNELS 3 Zrotation Xrotation Yrotation
      JOINT Character1_LeftFoot
      {
        OFFSET -1.95452 -45.2655 -4.18888
        CHANNELS 3 Zrotation Xrotation Yrotation
        JOINT Character1_LeftToeBase
        {
          OFFSET -1.87056 -6.69517 14.7145
          CHANNELS 3 Zrotation Xrotation Yrotation
          End Site
          {
            OFFSET 0 0 0
          }
        }
        JOINT L_Foot
        {
          OFFSET -8 -7.75529 4.18888
          CHANNELS 3 Zrotation Xrotation Yrotation
          End Site
          {
            OFFSET 0 0 0
          }
        }
      }
      JOINT L_Tibia
      {
        OFFSET 0 0 0
        CHANNELS 3 Zrotation Xrotation Yrotation
        End Site
        {
          OFFSET 0 0 0
        }
      }
    }
    JOINT L_Femur
    {
      OFFSET 0 0 0
      CHANNELS 3 Zrotation Xrotation Yrotation
      End Site
      {
        OFFSET 0 0 0
      }
    }
  }
  JOINT Pelvis
  {
    OFFSET 0 0 0
    CHANNELS 3 Zrotation Xrotation Yrotation
    End Site
    {
      OFFSET 0 0 0
    }
  }
}
MOTION
Frames:	4
Frame Time:	0.00833333
-85.6357 95.6659 -17.064 -21.7661 -45.1856 58.084 6.36111e-015 -3.18055e-015 -0 13.7644 24.6001 -19.2219 10.7424 -3.24037 -15.5506 -48.5101 17.5198 -37.5645 -1.34791 0.212077 -94.7071 16.4664 -3.37317 -9.31783 -2.38542e-015 20 -0 83 0 -85 -2.38542e-015 0 6.36111e-015 7.55835 -0.0685802 5.26693 61.8696 -2.48807 -12.4627 3.308 -0.539727 76.3868 -17.9014 -4.51756 13.0056 -5.20348e-015 20 -3.38468e-015 -83 -3.18055e-015 85 3.18055e-015 3.18055e-015 -0 3.18055e-015 0 -0 47.2691 4.47468 -24.2596 29.706 3.37424 -16.1916 3.18055e-015 0 -0 0.107087 5.75396 30.2273 -95.3853 -58.2876 -101.119 177.043 64.5643 -166.377 29.1563 4.3722 -3.80179 0.287545 -10.2205 0.0257708 2.98177e-016 -5.96354e-016 6.36111e-015 -4.77083e-015 0 -6.36111e-015 -1.59028e-015 0 -0 58.461 -18.8606 59.6569 1.0936 36.5118 11.9753 15.0576 -18.1888 2.00856 -0.0350996 -6.47048 0.000658308 -3.97569e-016 0 -6.36111e-015 -0 -3.18055e-015 -0 -1.68967e-015 2.38542e-015 -3.18055e-015 6.36111e-015 -3.18055e-015 -0 
-85.4136 95.5569 -17.3379 -21.409 -44.5683 57.5153 3.18055e-015 0 -3.18055e-015 13.8833 24.4801 -19.3669 10.8088 -3.23465 -15.4703 -48.1092 16.9963 -36.935 -1.52176 0.233267 -94.4637 16.5136 -3.37944 -9.31163 -3.18055e-015 20 -0 83 6.36111e-015 -85 7.95139e-016 1.59028e-015 -6.36111e-015 7.48942 -0.0702835 5.19555 61.9268 -2.932 -12.5172 3.26497 -0.40853 78.5214 -18.1642 -4.5782 13.0383 -3.18055e-015 20 -0 -83 0 85 -1.59028e-015 3.18055e-015 3.18055e-015 6.36111e-015 -3.18055e-015 3.18055e-015 46.8512 4.56969 -24.0654 29.5547 3.26258 -16.0874 6.36111e-015 -3.18055e-015 3.18055e-015 0.184505 5.78112 29.7899 -95.3973 -58.1816 -101.878 177.153 63.3726 -166.482 29.2272 4.5636 -3.85192 0.286869 -10.1934 0.0255533 -1.19271e-015 -7.95139e-016 -3.18055e-015 -0 0 6.36111e-015 1.59028e-015 -3.18055e-015 6.36111e-015 57.6099 -18.4042 59.4077 1.16121 36.7168 12.6402 14.8109 -18.3817 2.02636 -0.0476428 -7.33613 0.00144104 -3.97569e-016 3.97569e-016 -0 5.29669e-031 4.77083e-015 -6.36111e-015 9.93923e-016 -1.41634e-015 3.18055e-015 3.18055e-015 0 -3.18055e-015 
-85.1299 95.5121 -17.719 -21.0168 -43.7468 56.7923 3.18055e-015 -3.18055e-015 -3.18055e-015 13.849 24.3077 -19.4179 10.8262 -3.19494 -15.2596 -47.9491 16.6312 -35.5791 -1.67963 0.250851 -94.2283 16.4459 -3.35942 -9.27292 5.92846e-015 20 -3.38468e-015 83 -6.36111e-015 -85 -5.56597e-015 1.59028e-015 -0 7.38382 -0.0734365 5.11866 61.9263 -2.78031 -12.5611 2.80531 -0.241523 80.7455 -18.0458 -4.52338 12.9133 5.78814e-016 20 -1.69234e-015 -83 -3.18055e-015 85 1.59028e-015 0 -0 1.59028e-015 3.18055e-015 -0 46.0525 4.85945 -23.67 29.3472 3.15702 -15.9522 1.59028e-015 3.18055e-015 -0 0.255148 5.80574 29.319 -94.4413 -58.4235 -101.714 177.222 62.737 -166.636 29.1385 4.71621 -3.87185 0.286328 -10.1336 0.0252752 -4.41391e-032 7.95139e-016 3.18055e-015 1.59028e-015 0 6.36111e-015 -0 -6.36111e-015 -0 56.3515 -17.8024 58.9404 1.24459 36.685 13.6247 14.3434 -18.4881 2.01141 -0.0696161 -8.56878 0.00229686 3.97569e-016 0 3.18055e-015 1.59028e-015 -3.18055e-015 -0 1.83876e-015 1.963e-015 -6.36111e-015 3.18055e-015 -3.18055e-015 -3.18055e-015 
-84.8502 95.4678 -18.1043 -20.6103 -42.9505 56.0468 -6.36111e-015 -6.36111e-015 -0 13.8142 24.1352 -19.4693 10.8444 -3.15567 -15.0507 -47.7557 16.242 -34.2369 -1.8378 0.267856 -93.993 16.3787 -3.33946 -9.23395 2.38542e-015 20 -0 83 0 -85 5.56597e-015 -3.18055e-015 3.18055e-015 7.27787 -0.0772031 5.04387 61.9267 -2.63032 -12.6064 2.33879 -0.110619 82.9716 -17.9272 -4.46966 12.7916 -2.02293e-015 20 -3.38468e-015 -83 -6.36111e-015 85 4.77083e-015 -4.77083e-015 3.18055e-015 -3.18055e-015 0 -6.36111e-015 45.2508 5.14512 -23.2728 29.0908 3.04923 -15.7889 -3.18055e-015 0 -6.36111e-015 0.320807 5.82675 28.8187 -93.5099 -58.6653 -101.567 177.289 62.0994 -166.782 29.0523 4.87641 -3.89346 0.285916 -10.0737 0.0250003 7.95139e-016 1.59028e-015 -0 3.53113e-031 3.18055e-015 -6.36111e-015 -3.18055e-015 0 -3.18055e-015 55.0858 -17.1985 58.4681 1.32677 36.6354 14.6121 13.8723 -18.5236 1.98297 -0.103258 -10.0744 0.0032319 -3.97569e-016 3.97569e-016 3.18055e-015 1.59028e-015 0 -3.18055e-015 4.47266e-015 -1.78906e-015 1.27222e-014 -6.36111e-015 -6.36111e-015 -0 
